<?xml version="1.0" standalone="no"?>
<!DOCTYPE svg PUBLIC "-//W3C//DTD SVG 1.1//EN" "http://www.w3.org/Graphics/SVG/1.1/DTD/svg11.dtd" >
<svg xmlns="http://www.w3.org/2000/svg">
<metadata>
This is a custom SVG font generated by IcoMoon.
<iconset grid="20"></iconset>
</metadata>
<defs>
<font id="spodv2" horiz-adv-x="640" >
<font-face units-per-em="640" ascent="608" descent="-32" />
<missing-glyph horiz-adv-x="640" />
<glyph unicode="&#x21;" d="M 640.00,248.00L 520.00,368.00L 520.00,488.00L 440.00,488.00L 440.00,448.00L 320.00,568.00L0.00,248.00L 80.00,248.00L 80.00,8.00L 280.00,8.00L 280.00,168.00L 360.00,168.00L 360.00,8.00L 560.00,8.00L 560.00,248.00 	z" />
<glyph unicode="&#x22;" d="M 194.694,568.564l-16.363-425.367c-21.831,11.203-49.221,16.05-77.96,11.973c-61.968-8.776-106.589-55.523-99.661-104.396
	c 6.929-48.877, 62.779-81.376, 124.744-72.597c 54.995,7.794, 96.276,45.494, 100.028,88.038l 0.013-0.024c 0.007,0.096, 0.014,0.241, 0.022,0.35
	c 0.091,1.081, 0.144,2.176, 0.184,3.264c 2.308,43.929, 16.435,377.602, 16.435,377.602l 347.944,35.849l-15.715-300.512
	c-22.329,12.428-51.028,17.964-81.205,13.688c-61.968-8.785-106.585-55.521-99.657-104.401c 6.926-48.873, 62.776-81.377, 124.744-72.589
	c 56.166,7.95, 98.012,47.103, 100.207,90.755l 0.026,0.026C 619.678,130.19, 640.00,599.256, 640.00,599.256L 194.694,568.564z" />
<glyph unicode="&#x23;" d="M 280.00,368.00L 120.00-32.00l 60.745,0.00 L 320.00,89.849L 459.257-32.00L 520.00-32.00 L 360.00,368.00L 280.00,368.00 z M 186.28,25.994l 53.589,133.974l 49.763-43.541
			L 186.28,25.994z M 453.723,25.995l-103.35,90.43l 49.761,43.541L 453.723,25.995z M 320.00,143.00l-64.384,56.335L 307.081,328.00l 25.838,0.00 
			l 51.466-128.665L 320.00,143.00zM 458.589,527.999C 472.205,504.465, 480.00,477.142, 480.00,448.00s-7.795-56.465-21.411-79.999l 34.65-20.00
			C 510.255,377.419, 520.00,411.57, 520.00,448.00s-9.745,70.581-26.761,99.999L 458.589,527.999zM 181.41,368.001C 167.798,391.535, 160.00,418.858, 160.00,448.00s 7.795,56.465, 21.41,79.999L 146.762,547.997
			C 129.745,518.58, 120.00,484.43, 120.00,448.00s 9.745-70.58, 26.762-99.999L 181.41,368.001zM 42.815,608.00C 15.588,560.931,0.00,506.286,0.00,448.00s 15.588-112.931, 42.815-159.999l 34.649,20.00C 53.639,349.185, 40.00,396.999, 40.00,448.00
			S 53.639,546.815, 77.464,588.00L 42.815,608.00zM 640.00,448.00c0.00,58.288-15.588,112.933-42.816,160.00l0.00,0.00L 562.537,588.00C 586.362,546.815, 600.00,499.001, 600.00,448.00s-13.637-98.816-37.464-140.00
			l 34.648-20.00l0.00,0.00C 624.414,335.067, 640.00,389.713, 640.00,448.00zM 280.00,448.00A40.00,40.00 10620.00 1 1 360.00,448A40.00,40.00 10620.00 1 1 280.00,448z" />
<glyph unicode="&#x2b;" d="M 300.00,168.00c 55.229,0.00, 100.00,44.771, 100.00,100.00L 400.00,508.00 c0.00,55.229-44.771,100.00-100.00,100.00s-100.00-44.771-100.00-100.00l0.00-240.00 C 200.00,212.771, 244.773,168.00, 300.00,168.00zM 440.00,328.00l0.00-60.00 c0.00-77.319-62.681-140.00-140.00-140.00c-77.32,0.00-140.00,62.681-140.00,140.00l0.00,60.00 L 120.00,328.00 l0.00-60.00 c0.00-92.649, 70.002-168.938, 160.00-178.888L 280.00,8.00 
		l-80.00,0.00 l0.00-40.00 l 80.00,0.00 l 40.00,0.00 l 80.00,0.00 l0.00,40.00 l-80.00,0.00 l0.00,81.112 c 89.996,9.95, 160.00,86.239, 160.00,178.888l0.00,60.00 L 440.00,328.00 z" />
<glyph unicode="&#x24;" d="M 480.00,528.00c-61.474,0.00-117.537-23.123-160.00-61.131C 277.539,504.877, 221.474,528.00, 160.00,528.00S 42.461,504.877,0.00,466.87l0.00-10.745 l0.00-48.113 l0.00-240.005 
	L0.00,117.375 l0.00-8.22 c 0.428-0.383, 0.845-0.775, 1.275-1.155c 10.261-9.055, 21.30-17.247, 33.008-24.461c 11.787,9.539, 24.674,17.77, 38.451,24.461
	c 26.372,12.81, 55.979,20.00, 87.266,20.00s 60.895-7.19, 87.266-20.00c 13.776-6.692, 26.664-14.923, 38.451-24.461
	c 2.303-1.864, 4.563-3.777, 6.78-5.74c 10.135-8.973, 19.36-18.949, 27.502-29.787c 8.144,10.839, 17.367,20.815, 27.502,29.787
	c 2.216,1.961, 4.476,3.876, 6.78,5.74c 11.787,9.539, 24.674,17.77, 38.451,24.461c 26.372,12.81, 55.979,20.00, 87.266,20.00
	s 60.895-7.19, 87.266-20.00c 13.776-6.692, 26.664-14.923, 38.451-24.461c 11.707,7.214, 22.745,15.406, 33.006,24.461
	c 0.43,0.38, 0.849,0.772, 1.276,1.155L 640.00,117.375 l0.00,50.633 L 640.00,408.012 L 640.00,456.125 l0.00,10.745 C 597.539,504.877, 541.474,528.00, 480.00,528.00z M 160.00,168.00
	c-43.72,0.00-84.697-11.706-120.00-32.131L 40.00,448.009 C 73.426,473.119, 114.975,488.00, 160.00,488.00c 45.031,0.00, 86.572-14.899, 120.00-40.016l0.00-312.115 
	C 244.698,156.294, 203.72,168.00, 160.00,168.00z M 480.00,168.00c-43.72,0.00-84.697-11.706-120.00-32.131L 360.00,447.984 C 393.428,473.101, 434.97,488.00, 480.00,488.00
	c 45.026,0.00, 86.574-14.883, 120.00-39.992l0.00-312.14 C 564.697,156.294, 523.72,168.00, 480.00,168.00z" />
<glyph unicode="&#x25;" d="M 611.775,447.843c-6.617,0.00-13.411-2.326-19.648-6.729L 480.00,361.98L 480.00,428.00 c0.00,33.00-27.00,60.00-60.00,60.00L 60.00,488.00 c-33.00,0.00-60.00-27.00-60.00-60.00l0.00-280.00 
	c0.00-33.00, 27.00-60.00, 60.00-60.00l 360.00,0.00 c 33.00,0.00, 60.00,27.00, 60.00,60.00l0.00,66.019 l 112.126-79.134c 6.236-4.401, 13.03-6.727, 19.646-6.729
	c 0.001,0.00, 0.001,0.00, 0.004,0.00c 8.805,0.00, 16.846,4.06, 22.058,11.139c 4.035,5.481, 6.168,12.534, 6.168,20.398L 640.001,416.306 
	C 640.00,437.01, 625.801,447.843, 611.775,447.843z" />
<glyph unicode="&#x2c;" d="M 407.01,276.522L 640.00,115.83L 640.00,485.764 	zM0.00,485.764L0.00,115.83L 232.985,276.545 	zM 320.00,198.386L 264.374,248.33L0.00,88.00L 640.00,88.00L 375.619,248.33 	zM 620.80,488.00L 19.20,488.00L 320.00,261.843 	z" />
<glyph unicode="&#x2d;" d="M 360.00,608.00L0.00,248.00l 280.00-280.00l 360.00,360.00L 640.00,608.00 L 360.00,608.00 z M 520.00,430.00c-32.032,0.00-57.999,25.966-57.999,58.00S 487.968,546.00, 520.00,546.00
	s 58.00-25.966, 58.00-58.00S 552.033,430.00, 520.00,430.00z" />
<glyph unicode="&#x2e;" d="M 319.991,597.954C 143.257,597.954, 0.001,489.78, 0.001,356.355c0.00-104.239, 87.439-193.086, 209.954-226.956
	c 1.797-10.13, 4.063-24.558, 4.063-33.484c0.00-42.031-16.084-81.898-44.735-117.869c 44.305,18.66, 106.844,78.623, 145.591,136.79
	c 1.709-0.02, 3.411-0.105, 5.119-0.105c 176.75,0.00, 320.009,108.174, 320.009,241.624C 640.002,489.78, 496.744,597.954, 319.991,597.954z" />
<glyph unicode="&#x26;" d="M 640.00,228.00c0.00,39.98-32.852,74.476-80.324,90.479c-4.772-72.728-63.929-135.286-149.076-167.419
		c 15.816-9.386, 34.564-16.34, 55.129-20.036c 14.855-34.711, 38.351-68.045, 67.166-89.913c-15.585,30.591-16.494,61.18-11.03,88.105
		C 588.798,136.716, 640.00,178.085, 640.00,228.00zM 520.00,328.00c0.00,88.365-107.451,160.00-240.00,160.00C 147.453,488.00, 40.00,416.365, 40.00,328.00c0.00-65.796, 59.58-122.306, 144.726-146.886
		c 13.325-32.955, 20.835-76.455-1.328-119.959c 33.681,25.56, 60.101,66.78, 73.933,107.56C 264.796,168.249, 272.354,168.00, 280.00,168.00
		C 412.549,168.00, 520.00,239.635, 520.00,328.00z" />
<glyph unicode="&#x29;" d="M 200.00,168.00c 11.00-11.00, 29.546-10.454, 41.214,1.214L 438.787,366.786C 450.455,378.454, 451.00,397.00, 440.00,408.00
		s-29.546,10.454-41.214-1.214L 201.214,209.214C 189.546,197.546, 189.00,179.00, 200.00,168.00zM 298.055,186.055c 2.85-5.656, 4.369-11.975, 4.369-18.56c0.00-11.01-4.215-21.288-11.87-28.942l-102.114-102.114
		c-7.655-7.655-17.934-11.87-28.942-11.87s-21.288,4.215-28.942,11.87l-62.114,62.114c-7.655,7.655-11.87,17.934-11.87,28.942
		s 4.215,21.288, 11.87,28.942l 102.114,102.114c 7.655,7.655, 17.934,11.871, 28.942,11.871c 6.585,0.00, 12.902-1.519, 18.56-4.369l 40.836,40.836
		c-17.419,13.381-38.40,20.10-59.396,20.10c-24.991,0.00-49.982-9.479-68.943-28.439l-102.114-102.114
		c-37.919-37.919-37.919-99.968,0.00-137.886l 62.114-62.114C 109.514-22.52, 134.505-32.00, 159.496-32.00
		c 24.992,0.00, 49.984,9.48, 68.943,28.439l 102.114,102.114c 34.888,34.888, 37.649,90.186, 8.34,128.34L 298.055,186.055zM 611.561,517.448l-62.114,62.114C 530.489,598.521, 505.498,608.00, 480.505,608.00c-24.991,0.00-49.982-9.479-68.943-28.439l-102.114-102.114
		c-34.888-34.888-37.649-90.186-8.339-128.339l 40.836,40.838c-2.849,5.656-4.368,11.975-4.368,18.559c0.00,11.01, 4.215,21.288, 11.87,28.942
		l 102.114,102.114c 7.655,7.655, 17.934,11.871, 28.942,11.871s 21.288-4.216, 28.942-11.871l 62.114-62.114
		c 7.655-7.655, 11.87-17.934, 11.87-28.942s-4.215-21.288-11.87-28.942l-102.114-102.114c-7.655-7.655-17.934-11.87-28.942-11.87
		c-6.585,0.00-12.902,1.519-18.56,4.369l-40.836-40.836c 17.42-13.381, 38.40-20.10, 59.396-20.10c 24.992,0.00, 49.984,9.48, 68.943,28.439
		l 102.114,102.114C 649.48,417.48, 649.48,479.529, 611.561,517.448z" />
<glyph unicode="&#x2a;" d="M 120.00,608.00L 120.00-32.00L 320.00,168.00L 520.00-32.00L 520.00,608.00 z" />
<glyph unicode="&#x2f;" d="M 540.00,408.00c-22.00,0.00-40.00-18.00-40.00-40.00l0.00-160.00 c0.00-22.00, 18.00-40.00, 40.00-40.00s 40.00,18.00, 40.00,40.00L 580.00,368.00 C 580.00,390.00, 562.00,408.00, 540.00,408.00zM 60.00,408.00c-22.00,0.00-40.00-18.00-40.00-40.00l0.00-160.00 c0.00-22.00, 18.00-40.00, 40.00-40.00s 40.00,18.00, 40.00,40.00L 100.00,368.00 C 100.00,390.00, 81.999,408.00, 60.00,408.00zM 120.00,148.00c0.00-33.138, 26.862-60.00, 60.00-60.00l 20.00,0.00 l0.00-80.00 c0.00-22.00, 18.00-40.00, 40.00-40.00s 40.00,18.00, 40.00,40.00l0.00,80.00 l 40.00,0.00 l0.00-80.00 c0.00-22.00, 18.001-40.00, 40.00-40.00s 40.00,18.00, 40.00,40.00
		l0.00,80.00 l 20.00,0.00 c 33.138,0.00, 60.00,26.862, 60.00,60.00L 480.00,368.00 L 120.00,368.00 L 120.00,148.00 zM 374.124,552.066l 25.315,48.629c 1.27,2.439, 0.313,5.474-2.126,6.744s-5.474,0.313-6.744-2.126l-25.699-49.366
		C 344.746,563.726, 322.874,568.00, 300.00,568.00c-22.872,0.00-44.745-4.274-64.873-12.054L 209.43,605.311c-1.27,2.439-4.304,3.396-6.744,2.126
		s-3.396-4.304-2.126-6.744l 25.313-48.63c-56.644-25.636-97.65-79.74-104.763-144.065l 357.775,0.00 
		C 471.775,472.326, 430.769,526.429, 374.124,552.066z M 220.00,439.00c-16.016,0.00-29.00,12.984-29.00,29.00c0.00,16.016, 12.984,29.00, 29.00,29.00
		s 29.00-12.984, 29.00-29.00C 248.999,451.984, 236.016,439.00, 220.00,439.00z M 380.00,439.00c-16.016,0.00-29.001,12.984-29.001,29.00
		c0.00,16.016, 12.986,29.00, 29.001,29.00s 28.999-12.984, 28.999-29.00C 408.999,451.984, 396.016,439.00, 380.00,439.00z" />
<glyph unicode="&#x30;" d="M 494.686,267.942c-0.809,81.051, 66.099,119.922, 69.089,121.854c-37.595,55.012-96.156,62.549-117.026,63.42
		c-49.839,5.046-97.248-29.343-122.541-29.343c-25.23,0.00-64.261,28.596-105.595,27.845c-54.322-0.807-104.411-31.586-132.382-80.237
		c-56.44-97.936-14.454-243.025, 40.556-322.454c 26.88-38.877, 58.933-82.547, 101.016-80.988c 40.526,1.618, 55.851,26.224, 104.847,26.224
		c 48.996,0.00, 62.767-26.224, 105.656-25.419c 43.609,0.81, 71.239,39.624, 97.933,78.623c 30.869,45.105, 43.579,88.774, 44.328,91.016
		C 579.599,138.925, 495.529,171.131, 494.686,267.942zM 414.101,505.799C 436.438,532.897, 451.514,570.494, 447.401,608.00c-32.174-1.31-71.174-21.431-94.256-48.469
		c-20.714-23.985-38.843-62.266-33.984-99.023C 355.077,457.706, 391.741,478.761, 414.101,505.799z" />
<glyph unicode="&#x33;" d="M 600.00,88.00c-22.08,0.00-40.00,17.92-40.00,40.00l0.00,40.00 l0.00,120.00 c0.00,132.54-107.46,240.00-240.00,240.00C 187.46,528.00, 80.00,420.54, 80.00,288.00l0.00-120.00 
	l0.00-40.00 c0.00-22.08-17.92-40.00-40.00-40.00s-40.00,17.92-40.00,40.00l0.00,40.00 l0.00,120.00 C0.00,464.74, 143.28,608.00, 320.00,608.00c 176.72,0.00, 320.00-143.26, 320.00-320.00l0.00-120.00 l0.00-40.00 C 640.00,105.92, 622.08,88.00, 600.00,88.00z M 140.00,248.00l 40.00,0.00 
	c 11.04,0.00, 20.00-8.94, 20.00-20.00l0.00-200.00 c0.00-11.06-8.96-20.00-20.00-20.00L 140.00,8.00 c-11.04,0.00-20.00,8.94-20.00,20.00L 120.00,228.00 C 120.00,239.06, 128.96,248.00, 140.00,248.00z M 460.00,248.00l 40.00,0.00 c 11.06,0.00, 20.00-8.94, 20.00-20.00l0.00-200.00 
	c0.00-11.06-8.94-20.00-20.00-20.00l-40.00,0.00 c-11.06,0.00-20.00,8.94-20.00,20.00L 440.00,228.00 C 440.00,239.06, 448.94,248.00, 460.00,248.00z" />
<glyph unicode="&#x32;" d="M 451.30,527.72c-3.76,0.00-7.42-0.42-11.10-0.70l0.00-34.80 
			c 85.82,0.00, 155.40-91.42, 155.40-204.22s-69.58-204.22-155.40-204.22l0.00-34.80 c 3.68-0.28, 7.34-0.70, 11.10-0.70
			C 555.54,48.28, 640.00,155.60, 640.00,288.00S 555.54,527.72, 451.30,527.72z M 540.10,288.00c0.00,69.72-42.36,127.90-99.88,146.10l0.00-48.00 
			c 29.44-17.54, 49.94-54.68, 49.94-98.08s-20.50-80.54-49.94-98.08l0.00-48.00 C 497.74,160.10, 540.10,218.28, 540.10,288.00z M 340.16,608.00
			c-11.06,0.00-20.00-8.94-20.00-20.00L 120.04,368.00L 20.00,368.00 c-11.06,0.00-20.00-8.94-20.00-20.00l0.00-160.00 c0.00-11.06, 8.96-20.00, 20.00-20.00l 100.04,0.00 l 200.10-180.00c0.00-11.06, 8.94-20.00, 20.00-20.00
			c 11.08,0.00, 20.02,8.94, 20.02,20.00L 360.16,588.00 C 360.18,599.06, 351.24,608.00, 340.16,608.00z" />
<glyph unicode="&#x36;" d="M 480.00,192.00c-22.016,0.00-42.176-7.456-58.368-19.904l-167.008,100.192C 255.424,277.408, 256.00,282.656, 256.00,288.00c0.00,5.376-0.576,10.592-1.376,15.712
		l 167.008,100.192C 437.824,391.456, 457.984,384.00, 480.00,384.00c 52.992,0.00, 96.00,42.976, 96.00,96.00s-43.008,96.00-96.00,96.00s-96.00-42.976-96.00-96.00c0.00-5.344, 0.576-10.592, 1.408-15.712
		L 218.40,364.064C 202.208,376.544, 182.016,384.00, 160.00,384.00c-53.024,0.00-96.00-42.976-96.00-96.00c0.00-52.992, 42.976-96.00, 96.00-96.00c 22.016,0.00, 42.208,7.456, 58.40,19.904l 167.008-100.192
		C 384.576,106.592, 384.00,101.376, 384.00,96.00c0.00-52.992, 43.008-96.00, 96.00-96.00s 96.00,43.008, 96.00,96.00S 532.992,192.00, 480.00,192.00z" />
<glyph unicode="&#x37;" d="M 550.396,526.266c 16.061-7.86, 30.059-19.054, 40.314-32.801c 21.585-28.938, 27.647-68.358, 18.023-117.166
	c-9.725-49.391-31.51-91.084-63.229-121.278c-5.801-6.064-12.014-11.716-18.627-16.925c-33.973-26.751-76.874-40.892-124.068-40.892
	l-7.57,0.00 L 252.771,197.204 L 212.419,8.00l-82.765,0.00 l 6.304,28.938l 28.83,0.00 l 40.352,189.204l 117.669,0.00 c 112.656,0.00, 206.836,69.424, 232.036,187.46
	C 583.421,547.248, 487.596,608.00, 405.214,608.00L 124.415,608.00 L0.00,36.937l 95.02,0.00 L 80.00-32.00l 164.788,0.00 l 40.352,189.204l 117.669,0.00 
	c 112.656,0.00, 206.836,69.424, 232.036,187.46C 655.918,443.214, 609.342,502.121, 550.396,526.266z M 263.965,491.699l 80.708,0.00 
	c 40.37,0.00, 67.251-34.711, 55.491-78.097c-10.085-43.40-52.116-78.11-94.15-78.11l-77.349,0.00 L 263.965,491.699z" />
<glyph unicode="&#x47;" d="M 600.00,248.00l-40.00,0.00 l0.00,80.00 c0.00,132.50-107.50,240.00-240.00,240.00S 80.00,460.50, 80.00,328.00l0.00-80.00 L 40.00,248.00 c-22.10,0.00-40.00-17.90-40.00-40.00l0.00-160.00 c0.00-22.10, 17.90-40.00, 40.00-40.00l 120.00,0.00 L 160.00,328.00 
	c0.00,88.28, 71.72,160.00, 160.00,160.00s 160.00-71.72, 160.00-160.00l0.00-320.00 l 120.00,0.00 c 22.10,0.00, 40.00,17.90, 40.00,40.00l0.00,160.00 C 640.00,230.10, 622.10,248.00, 600.00,248.00z" />
<glyph unicode="&#x27;" d="M 447.968,435.20L 448.00,140.80L 192.00,288.00 z" />
<glyph unicode="&#x28;" d="M 467.20,415.968L 172.80,416.00L 320.00,160.00 z" />
<glyph unicode="&#x38;" d="M 172.80,160.00L 467.20,160.00L 319.968,416.00 z" />
<glyph unicode="&#x39;" d="M 192.032,435.20L 192.00,140.80L 448.00,288.00 z" />
<glyph unicode="&#x3a;" d="M 288.292,539.544 C 288.292,569.803 270.025,608.00 193.655,608.00 C 162.173,608.00 75.86,608.00 75.86,608.00 L 42.594,450.838 C 42.594,450.838 106.096,450.838 165.054,450.838 C 260.951,450.838 288.292,496.851 288.292,539.544 L 288.292,539.544 ZM 605.187,539.544 C 605.187,569.803 587.009,608.00 510.58,608.00 C 479.277,608.00 392.995,608.00 392.995,608.00 L 359.548,450.838 C 359.548,450.838 423.05,450.838 482.068,450.838 C 577.951,450.838 605.187,496.851 605.187,539.544 L 605.187,539.544 ZM 245.788,303.061 C 245.788,333.306 227.551,371.336 151.106,371.336 C 119.805,371.336 33.476,371.336 33.476,371.336 L 0.00,214.386 C 0.00,214.386 63.607,214.386 122.744,214.386 C 218.431,214.386 245.788,260.40 245.788,303.061 L 245.788,303.061 ZM 562.697,303.061 C 562.697,333.306 544.504,371.336 468.195,371.336 C 436.699,371.336 350.43,371.336 350.43,371.336 L 317.029,214.386 C 317.029,214.386 380.591,214.386 439.548,214.386 C 535.401,214.386 562.697,260.40 562.697,303.061 L 562.697,303.061 ZM 894.305,398.959 C 894.305,429.172 876.202,467.415 799.786,467.415 C 768.306,467.415 682.097,467.415 682.097,467.415 L 648.606,310.207 C 648.606,310.207 712.154,310.207 771.155,310.207 C 867.053,310.207 894.305,356.236 894.305,398.959 L 894.305,398.959 ZM 848.651,152.649 C 848.651,182.771 830.472,221.089 754.028,221.089 C 722.697,221.089 636.338,221.089 636.338,221.089 L 602.983,63.958 C 602.983,63.958 666.589,63.958 725.561,63.958 C 821.354,63.958 848.651,109.911 848.651,152.649 L 848.651,152.649 ZM 517.088,56.797 C 517.088,86.965 499.016,125.238 422.69,125.238 C 391.194,125.238 304.896,125.238 304.896,125.238 L 271.48-32.00 C 271.48-32.00 335.146-32.00 394.268-32.00 C 489.927-32.00 517.088,13.953 517.088,56.797 L 517.088,56.797 Z" horiz-adv-x="894" />
<glyph unicode="&#x46;" d="M 300.00,90.50L 300.00,483.00 C 300.00,483.00, 246.24,528.00, 170.00,528.00S 40.00,488.00, 40.00,488.00l0.00-397.50 
			c0.00,0.00, 53.76,38.76, 130.00,38.76S 300.00,90.50, 300.00,90.50z M 580.00,90.50L 580.00,483.00 c0.00,0.00-53.76,45.00-130.00,45.00S 320.00,488.00, 320.00,488.00l0.00-397.50 
			c0.00,0.00, 53.76,38.76, 130.00,38.76S 580.00,90.50, 580.00,90.50z M 620.00,448.00l-20.00,0.00 l0.00-380.00 L 360.00,68.00 l0.00-20.00 l-100.00,0.00 l0.00,20.00 L 20.00,68.00 L 20.00,448.00 L0.00,448.00 l0.00-400.00 l 240.00,0.00 l0.00-20.00 l 141.24,0.00 L 380.00,48.00l 240.00,0.00 L 620.00,448.00 z" />
<glyph unicode="&#x3b;" d="M 365.02,349.88c 12.34,41.98, 7.12,88.00-15.64,126.54
			C 349.88,475.72, 131.80,255.88, 130.24,257.26c 37.90-22.38, 83.92-28.68, 125.34-17.12C 255.28,241.20, 364.14,350.04, 365.02,349.88z
			 M 326.12,511.48c-29.38,28.96-71.42,48.60-115.88,48.60c-89.86,0.00-162.72-73.04-162.72-163.12c0.00-43.96, 20.00-86.52, 48.20-115.86
			C 95.78,281.10, 324.74,509.60, 326.12,511.48z M 556.24,78.68c0.00,0.00, 5.32,45.96-7.94,59.22c-0.88,0.88-152.92,186.50-152.92,186.50
			l-113.14-113.14l 185.62-153.78c 12.38-14.14, 60.10-7.08, 60.10-7.08l 38.00-34.48l 26.52,26.52L 556.24,78.68z" />
<glyph unicode="&#x50;" d="M 580.26,606.82l0.00,1.00 l-194.92,0.00 c-3.44,0.44-6.94,0.32-10.18-1.04
	c-5.92-1.58-10.84-5.50-13.24-11.04L 5.58,239.42c-7.78-7.80-7.78-20.42,0.00-28.20l 237.44-237.44c 7.80-7.78, 20.42-7.78, 28.20,0.00
	l 355.30,355.32c 7.92,2.66, 13.74,9.92, 13.74,18.74l0.00,190.00 C 640.26,573.06, 614.14,601.92, 580.26,606.82z M 520.26,447.82
	c-22.08,0.00-40.00,17.92-40.00,40.00s 17.92,40.00, 40.00,40.00s 40.00-17.92, 40.00-40.00S 542.34,447.82, 520.26,447.82z" />
<glyph unicode="&#x31;" d="M 320.00,608.00C 143.269,608.00,0.00,464.731,0.00,288.00c0.00-149.106, 101.981-274.395, 240.00-309.919L 240.00,248.00 l-57.829,0.00 l0.00,91.602 L 240.00,339.603 l0.00,59.491 
	C 240.00,479.933, 274.87,528.00, 369.919,528.00l 109.528,0.00 l0.00-99.106 l-89.456,0.00 c-26.551,0.044-29.845-13.845-29.845-39.695L 360.00,339.603l 120.00,0.00 L 464.12,248.00
	L 360.00,248.00 l0.00-277.516 C 517.851-9.831, 640.00,124.816, 640.00,288.00C 640.00,464.731, 496.731,608.00, 320.00,608.00z" />
<glyph unicode="&#x41;" d="M 320.00,608.00C 143.269,608.00,0.00,464.731,0.00,288.00s 143.269-320.00, 320.00-320.00s 320.00,143.269, 320.00,320.00S 496.731,608.00, 320.00,608.00z M 174.486,106.62
	c-29.121,0.00-52.786,22.276-52.786,49.884c0.00,27.454, 23.664,49.981, 52.786,49.981c 29.23,0.00, 52.865-22.527, 52.865-49.981
	C 227.351,128.898, 203.714,106.62, 174.486,106.62z M 307.178,106.185c0.00,47.111-19.326,91.457-54.333,124.63
	c-35.05,33.256-81.594,51.611-131.085,51.611l0.00,72.09 c 144.301,0.00, 261.762-111.389, 261.764-248.331L 307.178,106.185 z M 442.056,106.185
	c0.00,167.61-143.681,304.005-320.205,304.005l0.00,72.125 c 218.577,0.00, 396.449-168.792, 396.449-376.13L 442.056,106.185 z" />
<glyph unicode="&#x34;" d="M 320.00,608.00C 143.269,608.00,0.00,464.731,0.00,288.00s 143.269-320.00, 320.00-320.00s 320.00,143.269, 320.00,320.00S 496.731,608.00, 320.00,608.00z M 503.901,382.32
	c 0.182-4.067, 0.276-8.16, 0.276-12.274c0.00-125.389-95.442-269.978-269.974-269.978c-53.585,0.00-103.46,15.71-145.454,42.634
	c 7.422-0.88, 14.976-1.329, 22.635-1.329c 44.456,0.00, 85.369,15.172, 117.844,40.621c-41.521,0.762-76.563,28.201-88.64,65.895
	c 5.796-1.105, 11.74-1.701, 17.854-1.701c 8.654,0.00, 17.036,1.16, 24.999,3.327c-43.407,8.72-76.116,47.07-76.116,93.042
	c0.00,0.40,0.00,0.799, 0.01,1.194c 12.794-7.106, 27.424-11.375, 42.977-11.867c-25.463,17.014-42.213,46.057-42.213,78.98
	c0.00,17.389, 4.68,33.69, 12.848,47.703c 46.799-57.409, 116.718-95.183, 195.577-99.142c-1.618,6.949-2.456,14.189-2.456,21.627
	c0.00,52.40, 42.488,94.883, 94.886,94.883c 27.291,0.00, 51.953-11.523, 69.261-29.962c 21.612,4.255, 41.921,12.151, 60.258,23.025
	c-7.085-22.159-22.131-40.754-41.72-52.496c 19.194,2.292, 37.48,7.395, 54.496,14.94
	C 538.531,412.411, 522.444,395.70, 503.901,382.32z" />
<glyph unicode="&#x42;" d="M0.00,34.666c0.00-29.466, 23.866-53.334, 53.334-53.334l 173.334,0.00 c 29.466,0.00, 53.334,23.866, 53.334,53.334L 280.00,248.00 c0.00,29.466-23.866,53.334-53.334,53.334l-85.60,0.00 
	c-14.80,0.00-26.666,12.00-26.666,26.666c0.00,4.80, 1.20,8.134, 1.20,8.134c 19.466,64.534, 68.654,116.266, 131.734,139.20l 0.266,0.266C 266.666,483.734, 280.00,502.666, 280.00,524.666
	c0.00,29.466-23.866,53.334-53.334,53.334c-7.20,0.00-14.00-1.466-20.266-4.00L 204.00,573.066C 84.666,526.534,0.00,410.534,0.00,274.666L0.00,34.666 z M 346.666,34.666c0.00-29.466, 23.866-53.334, 53.334-53.334l 173.334,0.00 
	c 29.466,0.00, 53.334,23.866, 53.334,53.334L 626.666,248.00 c0.00,29.466-23.866,53.334-53.334,53.334l-85.60,0.00 c-14.80,0.00-26.666,12.00-26.666,26.666c0.00,4.934, 1.20,8.134, 1.20,8.134c 19.466,64.534, 68.654,116.266, 131.734,139.20
	l 0.266,0.266C 613.334,483.734, 626.666,502.666, 626.666,524.666c0.00,29.466-23.866,53.334-53.334,53.334c-7.20,0.00-14.00-1.466-20.266-4.00L 550.666,573.066C 431.334,526.534, 346.666,410.534, 346.666,274.666L 346.666,34.666 z" />
<glyph unicode="&#x4d;" d="M 320.00,548.00C 176.40,548.00, 60.00,431.60, 60.00,288.00s 116.40-260.00, 260.00-260.00s 260.00,116.40, 260.00,260.00S 463.60,548.00, 320.00,548.00z M 320.00,68.00C 198.50,68.00, 100.00,166.50, 100.00,288.00S 198.50,508.00, 320.00,508.00
			s 220.00-98.50, 220.00-220.00S 441.50,68.00, 320.00,68.00z M 293.04,372.58c-13.48,14.78-29.66,22.16-48.62,22.16c-19.40,0.00-35.40-6.72-47.94-20.18
			c-5.06-5.52-9.10-12.02-12.08-19.52c-2.96-7.50-4.46-15.12-4.46-22.82c0.00-15.88, 4.48-29.40, 13.40-40.54
			c 8.94-11.14, 20.58-17.80, 34.94-20.00l 4.98-0.32l 4.30-0.68c 6.62-0.88, 9.94-3.42, 9.94-7.60c0.00-4.42-4.42-11.36-13.26-20.84
			c-9.28-10.14-23.96-20.42-44.06-30.76c-8.40-4.42-12.58-9.92-12.58-16.54c0.00-4.20, 1.42-7.68, 4.30-10.42
			c 2.86-2.76, 6.50-4.12, 10.92-4.12c 11.02,0.00, 26.24,6.38, 45.64,19.18c 22.92,15.00, 41.24,33.24, 54.90,54.76
			c 13.68,21.48, 20.50,42.72, 20.50,63.68c0.00,9.92-1.88,19.78-5.62,29.60C 304.50,357.42, 299.42,365.74, 293.04,372.58z M 450.46,372.58
			c-13.40,14.78-29.46,22.16-48.16,22.16c-19.58,0.00-35.54-6.72-47.86-20.18c-5.08-5.52-9.08-12.08-12.06-19.68
			c-2.98-7.62-4.46-15.16-4.46-22.66c0.00-15.88, 4.40-29.46, 13.18-40.70s 20.36-17.86, 34.64-19.84l 5.28-0.32l 3.94-0.68
			c 6.60-0.88, 9.90-3.42, 9.90-7.60c0.00-4.42-4.30-11.36-12.88-20.84c-9.02-9.70-23.66-19.96-43.88-30.76
			c-8.38-4.42-12.56-9.92-12.56-16.54c0.00-4.20, 1.44-7.68, 4.30-10.42c 2.88-2.76, 6.50-4.12, 10.90-4.12
			c 11.00,0.00, 26.20,6.38, 45.54,19.18c 22.90,15.00, 41.12,33.24, 54.64,54.76c 13.52,21.48, 20.30,42.72, 20.30,63.68
			c0.00,9.92-1.86,19.78-5.60,29.60C 461.92,357.42, 456.86,365.74, 450.46,372.58z" />
<glyph unicode="&#x4e;" d="M 320.00,548.00C 176.40,548.00, 60.00,431.60, 60.00,288.00s 116.40-260.00, 260.00-260.00s 260.00,116.40, 260.00,260.00S 463.60,548.00, 320.00,548.00z M 320.00,68.00C 198.50,68.00, 100.00,166.50, 100.00,288.00S 198.50,508.00, 320.00,508.00
			s 220.00-98.50, 220.00-220.00S 441.50,68.00, 320.00,68.00z M 291.84,364.52c 8.38,4.42, 12.56,9.94, 12.56,16.56c0.00,4.18-1.42,7.66-4.28,10.42
			c-2.88,2.76-6.50,4.14-10.90,4.14c-11.02,0.00-26.20-6.40-45.56-19.18c-22.90-15.00-41.10-33.24-54.62-54.74
			c-13.52-21.50-20.30-42.74-20.30-63.70c0.00-9.92, 1.88-19.78, 5.62-29.60c 3.74-9.80, 8.80-18.12, 15.18-24.98
			c 13.42-14.78, 29.48-22.16, 48.18-22.16c 19.58,0.00, 35.54,6.74, 47.86,20.20c 5.06,5.50, 9.06,12.08, 12.06,19.68
			c 2.96,7.62, 4.46,15.16, 4.46,22.66c0.00,15.88-4.40,29.44-13.18,40.70s-20.36,17.86-34.64,19.84l-5.28,0.32l-3.96,0.68
			c-6.58,0.88-9.90,3.42-9.90,7.60c0.00,4.42, 4.30,11.36, 12.90,20.84C 257.00,343.46, 271.60,353.72, 291.84,364.52z M 449.80,364.52
			c 8.40,4.42, 12.58,9.94, 12.58,16.56c0.00,4.18-1.42,7.66-4.30,10.42c-2.86,2.76-6.50,4.14-10.92,4.14
			c-11.02,0.00-26.24-6.40-45.64-19.18c-22.92-15.00-41.22-33.24-54.88-54.74s-20.50-42.74-20.50-63.70c0.00-9.92, 1.88-19.78, 5.62-29.60
			c 3.76-9.80, 8.80-18.12, 15.20-24.98c 13.46-14.78, 29.64-22.16, 48.60-22.16c 19.42,0.00, 35.40,6.74, 47.96,20.20
			c 5.06,5.50, 9.10,12.02, 12.08,19.52c 2.96,7.52, 4.46,15.12, 4.46,22.84c0.00,15.88-4.48,29.38-13.40,40.52
			c-8.94,11.14-20.58,17.80-34.94,20.00l-4.98,0.32l-4.30,0.68c-6.60,0.88-9.92,3.42-9.92,7.60c0.00,4.42, 4.42,11.36, 13.24,20.84
			C 415.02,343.92, 429.70,354.16, 449.80,364.52z" />
<glyph unicode="&#x43;" d="M 570.00,68.00c-16.56,0.00-30.00,13.44-30.00,30.00l0.00,360.00 C 540.00,474.56, 553.44,488.00, 570.00,488.00
	S 600.00,474.56, 600.00,458.00l0.00-360.00 C 600.00,81.44, 586.56,68.00, 570.00,68.00z M 420.00,108.00c0.00-22.08-17.92-40.00-40.00-40.00l-180.00,0.00 c-22.08,0.00-40.00,17.92-40.00,40.00l0.00,79.18 l-79.82,17.76l0.00,144.58 
	l 440.48,97.06l0.00-339.68 L 420.00,129.28L 420.00,108.00 z M 400.00,133.74L 180.00,182.72L 180.00,108.00 c0.00-11.04, 8.96-20.00, 20.00-20.00l 180.00,0.00 c 11.06,0.00, 20.00,8.96, 20.00,20.00L 400.00,133.74 z M 40.00,188.00
	c-11.04,0.00-20.00,8.96-20.00,20.00l0.00,140.00 c0.00,11.06, 8.96,20.00, 20.00,20.00s 20.00-8.94, 20.00-20.00l0.00-140.00 C 60.00,196.96, 51.04,188.00, 40.00,188.00z" />
<glyph unicode="&#x44;" d="M 320.00,608.00C 143.28,608.00,0.00,464.72,0.00,288.00c0.00-176.72, 143.28-320.00, 320.00-320.00c 176.72,0.00, 320.00,143.28, 320.00,320.00
	C 640.00,464.72, 496.72,608.00, 320.00,608.00z M 420.00,128.00C 386.88,128.00, 360.00,154.88, 360.00,188.00S 386.88,248.00, 420.00,248.00c 7.12,0.00, 13.68-1.80, 20.00-4.08L 440.00,361.88 L 240.00,333.32L 240.00,148.00 
	C 240.00,114.88, 213.12,88.00, 180.00,88.00C 146.84,88.00, 120.00,114.88, 120.00,148.00S 146.84,208.00, 180.00,208.00c 7.08,0.00, 13.68-1.80, 20.00-4.08L 200.00,448.00 L 194.32,447.60l 280.00,40.00L 480.00,188.00
	C 480.00,154.88, 453.12,128.00, 420.00,128.00z" />
<glyph unicode="&#x35;" d="M 575.78,404.94c-0.12,0.30-0.28,0.60-0.42,0.92l 0.58-0.10L 575.78,404.94z
	 M 505.00,163.66l-93.36-3.88l-48.76,85.70l 50.46,91.12l 97.74-3.24l 41.72-85.18L 505.00,163.66z M 254.16,246.70l-48.98,88.62
	l 51.20,85.42l 104.42,1.60l 51.28-85.06l-50.40-90.94L 254.16,246.70z M 256.32,422.20l-38.60,66.46l 51.28,62.56l 89.50,2.86l 47.70-59.08
	l-45.66-71.20L 256.32,422.20z M 207.48,163.02l-82.70,8.08l-39.84,79.66l 34.76,80.76l 84.10,3.22l 49.00-88.66L 207.48,163.02z
	 M 496.22,484.82l 7.92,15.74c 30.00-26.02, 54.34-58.24, 71.22-94.70l-29.64,4.72L 496.22,484.82z M 407.70,495.50l-47.78,59.14
	c 1.18,1.44, 7.54,9.18, 7.66,9.30c-42.82,7.16-81.88,3.50-107.62-2.54c 0.18-0.12, 6.38-7.96, 7.66-9.58l-51.30-62.56
	L 139.82,476.38L 133.00,497.24L 131.82,496.88C 181.70,541.84, 247.54,569.46, 320.00,569.46c 69.96,0.00, 133.78-25.66, 183.00-67.90l-8.08-16.08L 407.70,495.50z
	 M 92.78,403.56l-32.16-7.58l 0.36-1.40l 31.60,7.44l 26.00-69.44l-34.88-81.06c-4.72,0.46-41.22,3.96-41.22,1.74
	c 6.40-53.70, 26.78-100.42, 61.88-144.12l 20.60,60.46l 82.56-8.06l 52.14-79.12l-36.00-58.62C 115.76,63.22, 38.54,166.46, 38.54,288.00
	c0.00,82.92, 36.06,157.20, 93.10,208.72l 6.92-21.24L 92.78,403.56z M 357.18,79.30l 42.92-60.10l 1.22,0.86l-42.66,59.66l 53.00,78.60
	l 93.28,3.86c 1.88-4.22, 25.78-57.96, 25.62-57.96c 39.34,46.06, 59.10,92.22, 66.24,144.84c-0.08,0.00-38.28-0.16-42.78-0.20
	l-41.76,85.36l 33.68,74.82l 29.72-4.74l 0.08,0.62c 16.32-35.64, 25.66-75.16, 25.66-116.94c0.00-155.44-126.02-281.46-281.44-281.46
	c-33.38,0.00-65.24,6.12-94.94,16.78l 35.94,58.50L 357.18,79.30z M 224.68,22.66l-1.24,0.76l 0.24,0.40
	c 0.46-0.18, 0.94-0.34, 1.40-0.50L 224.68,22.66z M 131.62,496.80l 0.22,0.08C 131.76,496.82, 131.70,496.76, 131.66,496.72L 131.62,496.80z
	 M 503.28,502.10l 1.28-0.64l-0.42-0.90c-0.40,0.34-0.74,0.68-1.14,1.02L 503.28,502.10z" />
<glyph unicode="&#x3c;" d="M 3.807,118.775 C 124.51,110.809 166.169,67.41 238.862,70.861 C 311.556,74.313 350.213,116.756 470.067,133.051 L 467.848,196.50 C 347.994,180.205 309.337,137.762 236.643,134.31 C 163.95,130.859 122.291,174.259 1.588,182.224 L 3.807,118.775 ZM 237.009,607.813 C 115.912,607.656 17.753,509.098 17.76,387.674 C 17.768,270.05 109.887,174.115 225.734,168.371 L 225.724,426.539 L 187.437,426.489 L 239.674,479.902 L 287.489,426.619 L 253.631,426.575 L 253.64,168.747 C 366.976,177.407 456.291,272.425 456.284,388.245 C 456.276,509.668 358.105,607.971 237.009,607.813 ZM 237.012,555.487 C 329.287,555.607 404.093,480.701 404.099,388.177 C 404.103,323.034 378.984,280.512 324.835,253.903 C 324.835,253.903 300.814,278.782 292.835,384.035 L 332.70,384.087 L 332.696,448.044 L 237.013,539.858 L 141.341,447.795 L 141.345,383.838 L 181.21,383.89 C 173.244,278.616 149.226,253.675 149.226,253.675 C 95.074,280.142 69.95,322.60 69.946,387.742 C 69.94,480.266 144.737,555.367 237.012,555.487 ZM 13.183,22.518 C 129.256,11.165 167.843-32.325 238.048-31.133 C 308.252-29.94 347.059,10.226 463.195,22.516 L 463.357,84.349 C 347.222,72.06 308.415,31.894 238.21,30.701 C 168.005,29.508 129.419,72.999 13.346,84.351 L 13.183,22.518 Z" horiz-adv-x="470.6216696269982" data-tags="tower" />
<glyph unicode="&#x54;" d="M 76.459,66.707 C 197.011,88.482 248.539,56.157 319.129,77.356 C 389.719,98.554 417.347,149.626 531.144,194.97 L 513.479,256.612 C 399.681,211.267 372.053,160.195 301.463,138.997 C 230.873,117.798 179.346,150.123 58.794,128.348 L 76.459,66.707 ZM 169.508,598.977 C 50.551,569.144 -21.851,448.493 7.789,329.49 C 36.503,214.21 150.436,142.764 265.675,165.526 L 202.66,418.548 L 165.049,409.116 L 203.344,474.267 L 263.333,433.764 L 230.073,425.423 L 293.005,172.734 C 402.261,208.998 466.838,324.012 438.565,437.523 C 408.924,556.526 288.465,628.81 169.508,598.977 ZM 182.282,547.694 C 272.926,570.427 364.715,515.347 387.301,424.667 C 403.203,360.823 388.898,312.992 342.182,273.642 C 342.182,273.642 312.507,292.138 278.979,393.339 L 318.14,403.16 L 302.528,465.843 L 186.097,532.377 L 114.553,418.701 L 130.165,356.018 L 169.327,365.84 C 187.19,260.71 169.677,230.38 169.677,230.38 C 110.004,243.048 74.955,278.503 59.053,342.346 C 36.467,433.026 91.637,524.962 182.282,547.694 ZM 109.163-25.335 C 225.993-8.014 274.524-41.181 343.219-22.806 C 411.915-4.431 440.246,44.445 551.367,84.953 L 536.437,145.594 C 425.316,105.087 396.985,56.21 328.289,37.835 C 259.594,19.46 211.062,52.628 94.233,35.306 L 109.163-25.335 Z" horiz-adv-x="554" />
<glyph unicode="&#x3d;" d="M 640.00,6.40c0.00,0.00-1.248,121.184-8.672,133.728c-11.04,18.72-36.672,31.552-84.288,51.456c-47.456,19.84-62.656,36.608-62.656,72.416
		c0.00,21.536, 14.496,14.496, 20.864,53.888c 2.624,16.352, 15.424,0.288, 17.888,37.568c0.00,14.88-6.976,18.592-6.976,18.592s 3.52,22.016, 4.928,38.944
		c 1.728,21.12-10.656,75.616-76.544,75.616s-78.208-54.528-76.512-75.616c 1.376-16.928, 4.896-38.944, 4.896-38.944s-6.976-3.712-6.976-18.592
		c 2.464-37.312, 15.264-21.248, 17.92-37.568c 6.336-39.392, 20.832-32.352, 20.832-53.888c0.00-24.352-7.04-39.904-26.464-53.568
		c 103.68-51.904, 117.60-62.496, 117.60-108.896L 495.84,6.40 L 640.00,6.40 z M 327.168,173.60c-63.328,26.432-83.52,48.768-83.52,96.544c0.00,28.672, 19.328,19.328, 27.808,71.872
		c 3.488,21.792, 20.608,0.352, 23.84,50.08c0.00,19.84-9.312,24.768-9.312,24.768s 4.736,29.344, 6.592,51.936C 294.88,496.896, 278.368,569.60, 190.528,569.60
		c-87.84,0.00-104.32-72.672-102.016-100.80c 1.856-22.592, 6.56-51.936, 6.56-51.936S 85.792,411.936, 85.792,392.096
		c 3.296-49.76, 20.352-28.32, 23.872-50.08c 8.48-52.544, 27.808-43.168, 27.808-71.872c0.00-47.776-20.256-70.112-83.52-96.544
		C 34.656,165.536,0.00,153.024,0.00,123.008L0.00,6.40 l 444.608,0.00 c0.00,0.00,0.00,68.96,0.00,87.392C 444.608,121.216, 390.624,147.04, 327.168,173.60z" />
<glyph unicode="&#x3e;" d="M 389.248,292.704c-7.36,4.928-16.448,9.184-26.88,12.672C 352.00,308.768, 340.32,311.936, 327.584,314.72C 317.536,317.12, 310.208,318.976, 305.824,320.224
	C 301.568,321.44, 297.312,323.136, 293.184,325.28C 289.184,327.328, 286.016,329.792, 283.808,332.608C 281.696,335.264, 280.672,338.304, 280.672,342.016
	c0.00,6.016, 3.20,11.104, 9.76,15.52c 6.816,4.608, 16.00,6.912, 27.264,6.912c 12.128,0.00, 20.96-2.08, 26.272-6.208
	c 5.44-4.288, 10.208-10.304, 14.08-17.984c 3.424-6.016, 6.432-10.176, 9.44-12.864c 3.136-2.88, 7.68-4.352, 13.504-4.352
	c 6.432,0.00, 11.872,2.336, 16.192,6.944c 4.256,4.608, 6.432,9.856, 6.432,15.616c0.00,6.016-1.696,12.224-4.928,18.464
	c-3.20,6.144-8.384,12.128-15.264,17.696c-6.88,5.504-15.616,9.984-25.984,13.312c-10.304,3.328-22.656,4.96-36.704,4.96
	c-17.568,0.00-33.088-2.496-46.144-7.456C 261.312,387.52, 251.04,380.192, 244.00,370.752C 236.928,361.248, 233.344,350.208, 233.344,337.984
	c0.00-12.80, 3.424-23.744, 10.176-32.416c 6.656-8.608, 15.744-15.424, 27.008-20.384c 11.04-4.80, 24.896-9.088, 41.216-12.672
	c 12.00-2.56, 21.728-5.024, 28.864-7.328c 6.848-2.176, 12.544-5.408, 16.768-9.536c 4.064-3.936, 6.048-8.928, 6.048-15.328
	c0.00-8.064-3.808-14.656-11.648-20.192c-8.00-5.632-18.656-8.48-31.68-8.48c-9.44,0.00-17.152,1.408-22.848,4.192
	c-5.664,2.752-10.112,6.272-13.184,10.464c-3.20,4.384-6.24,9.92-9.024,16.512c-2.496,6.016-5.60,10.688-9.216,13.856
	c-3.808,3.296-8.448,4.96-13.856,4.96c-6.592,0.00-12.096-2.112-16.416-6.272c-4.352-4.224-6.56-9.344-6.56-15.296
	c0.00-9.472, 3.392-19.328, 10.048-29.216c 6.624-9.856, 15.328-17.792, 25.92-23.648c 14.784-8.064, 33.728-12.16, 56.288-12.16
	c 18.816,0.00, 35.328,3.008, 49.152,8.864c 13.952,5.984, 24.672,14.368, 31.936,24.928c 7.328,10.656, 11.008,22.816, 11.008,36.128
	c0.00,11.168-2.112,20.704-6.368,28.512C 402.752,281.184, 396.80,287.68, 389.248,292.704z M 320.00,595.20c-169.664,0.00-307.20-137.536-307.20-307.20s 137.536-307.20, 307.20-307.20
	c 169.696,0.00, 307.20,137.536, 307.20,307.20S 489.696,595.20, 320.00,595.20z M 393.632,115.968c-15.552,0.00-30.24,4.032-43.104,11.136
	c-9.344-1.792-18.944-2.72-28.80-2.72c-86.848,0.00-157.28,72.48-157.28,161.824c0.00,11.168, 1.088,22.016, 3.20,32.544
	C 159.68,332.672, 155.104,348.864, 155.104,366.176c0.00,51.808, 40.832,93.856, 91.20,93.856c 17.856,0.00, 34.464-5.28, 48.544-14.40C 303.552,447.20, 312.544,448.00, 321.728,448.00
	c 86.848,0.00, 157.28-72.48, 157.28-161.824c0.00-11.904-1.248-23.52-3.616-34.72c 6.048-12.576, 9.44-26.688, 9.44-41.696
	C 484.80,157.984, 444.00,115.968, 393.632,115.968z" />
<glyph unicode="&#x3f;" d="M 291.104,374.88c-7.712,27.20-20.192,35.232-39.616,35.232c-2.08,0.00-4.192-0.288-6.208-0.832C 236.832,406.88, 230.176,399.84, 226.464,389.44
	C 222.656,378.88, 222.40,367.84, 225.728,355.296c 5.888-22.40, 21.824-38.688, 37.92-38.688c 2.08,0.00, 4.192,0.288, 6.208,0.832
	C 287.36,322.40, 298.368,349.216, 291.104,374.88z M 320.00,595.20c-169.664,0.00-307.20-137.536-307.20-307.20s 137.536-307.20, 307.20-307.20c 169.696,0.00, 307.20,137.536, 307.20,307.20
	S 489.696,595.20, 320.00,595.20z M 302.304,156.096c-19.328-9.376-40.096-10.368-48.128-10.368c-1.536,0.00-2.40,0.032-2.528,0.032c0.00,0.00-0.608,0.00-1.568,0.00
	c-12.544,0.00-74.976,2.88-74.976,59.744c0.00,55.872, 67.968,60.224, 88.80,60.224l 0.576,0.00 C 252.48,281.792, 254.976,297.984, 254.976,297.984
	C 253.92,297.92, 252.352,297.856, 250.464,297.856c-7.872,0.00-23.008,1.248-36.00,9.664C 198.56,317.728, 190.496,335.168, 190.496,359.328
	c0.00,68.192, 74.432,70.944, 75.20,70.976l 74.336,0.00 l0.00-1.632 c0.00-8.32-14.912-9.92-25.12-11.328C 311.456,416.864, 304.544,416.16, 302.56,415.168
	c 18.848-10.048, 21.888-25.888, 21.888-49.44c0.00-26.784-10.496-40.96-21.632-50.944C 295.936,308.64, 290.496,303.744, 290.496,297.28
	c0.00-6.336, 7.424-12.864, 16.064-20.448c 14.112-12.416, 33.472-29.408, 33.472-57.952C 340.032,189.376, 327.328,168.256, 302.304,156.096z M 464.864,288.288
	l-48.512,0.00 l0.00-48.512 l-30.72,0.00 L 385.632,288.288 l-48.512,0.00 l0.00,30.72 l 48.512,0.00 L 385.632,367.488 l 30.72,0.00 l0.00-48.512 l 48.512,0.00 L 464.864,288.288 z M 263.136,251.168c-1.664,0.00-3.328-0.064-4.992-0.192
	c-14.208-1.024-27.328-6.368-36.832-15.008c-9.408-8.512-14.176-19.232-13.504-30.112c 1.408-22.72, 25.856-36.064, 55.488-33.92
	c 29.216,2.112, 48.672,18.912, 47.232,41.664C 309.152,235.008, 290.56,251.168, 263.136,251.168z" />
<glyph unicode="&#x40;" d="M 320.001,608.00C 143.269,608.00,0.00,464.732,0.00,288.00c0.00-176.731, 143.268-320.00, 320.001-320.00C 496.733-32.00, 640.00,111.269, 640.00,288.00
	C 640.00,464.732, 496.733,608.00, 320.001,608.00z M 420.001,464.57c 15.619,0.00, 28.284-25.328, 28.284-56.57c0.00-31.241-12.665-56.569-28.284-56.569
	c-15.622,0.00-28.286,25.328-28.286,56.569C 391.715,439.243, 404.379,464.57, 420.001,464.57z M 220.001,464.57
	c 15.62,0.00, 28.284-25.328, 28.284-56.57c0.00-31.241-12.664-56.569-28.284-56.569c-15.622,0.00-28.285,25.328-28.285,56.569
	C 191.716,439.243, 204.379,464.57, 220.001,464.57z M 320.001,88.00C 215.708,88.00, 129.111,175.42, 120.00,286.94
	c 58.606-33.821, 127.531-53.165, 200.001-53.165c 72.468,0.00, 141.393,19.254, 200.00,53.075C 510.89,175.326, 424.294,88.00, 320.001,88.00z" />
<glyph unicode="&#x4f;" d="M 85.184,138.669c-46.998,0.00-85.183-38.334-85.183-85.047c0.00-46.971, 38.188-84.876, 85.183-84.876
		c 47.166,0.00, 85.309,37.905, 85.309,84.876C 170.491,100.335, 132.353,138.669, 85.184,138.669zM 0.098,390.544l0.00-122.661 c 79.865,0.00, 154.974-31.233, 211.536-87.82c 56.49-56.449, 87.676-131.898, 87.676-212.063l 123.201,0.00 
		C 422.51,201.013, 232.96,390.544, 0.098,390.544zM 0.242,608.00l0.00-122.722 c 284.864,0.00, 516.722-232.084, 516.722-517.278L 640.00-32.00 C 640.00,320.794, 352.966,608.00, 0.242,608.00z" />
<glyph unicode="&#x4a;" d="M 0.00,517.392 L 260.011,552.906 L 260.123,301.395 L 0.241,299.906 L 0.00,517.392 ZM 259.888,272.407 L 260.088,20.686 L 0.205,56.509 L 0.184,274.097 L 259.888,272.407 ZM 291.401,557.543 L 636.153,608.00 L 636.153,304.589 L 291.401,301.847 L 291.401,557.543 ZM 636.235,270.045 L 636.153-32.00 L 291.401,16.804 L 290.924,270.60 L 636.235,270.045 Z" horiz-adv-x="636" />
<glyph unicode="&#x48;" d="M 160.00,68.00c0.00-10.00, 10.42-20.00, 20.86-20.00L 600.00,48.00 l0.00,40.00 L 180.86,88.00 C 170.42,88.00, 160.00,78.00, 160.00,68.00z M 40.00,528.00l0.00-480.00 
	c0.00-40.00, 40.00-80.00, 80.00-80.00l 480.00,0.00 l0.00,40.00 L 182.60,8.00 C 151.30,8.00, 120.00,38.00, 120.00,68.00s 31.30,60.00, 62.60,60.00L 600.00,128.00 L 600.00,608.00 L 120.00,608.00 C 80.00,608.00, 40.00,568.00, 40.00,528.00z" />
<glyph unicode="&#x45;" d="M 328.02,89.78l0.00-59.90 c 59.90-3.24, 106.24-23.08, 106.24-41.56
	c0.00-0.46-245.64-0.46-245.64,0.00c0.00,17.82, 42.88,37.02, 99.58,41.28l0.00,60.42 C 215.82,100.40, 160.00,162.02, 160.00,237.28l0.00,29.86 l 19.92,0.00 l0.00-29.86 
	c0.00-71.48, 57.94-129.44, 129.42-129.46l 0.08,0.00 c 71.48,0.02, 130.66,57.96, 130.66,129.46l0.00,29.86 L 460.00,267.14 l0.00-29.86 
	C 460.00,161.16, 401.62,99.06, 328.02,89.78z M 309.36,128.98c-60.48,0.00-109.56,49.06-109.56,109.56l0.00,28.62 l 220.36,0.00 l0.00-28.62 
	C 420.16,178.04, 369.84,128.98, 309.36,128.98z M 199.80,458.50c0.00,60.50, 49.06,109.54, 109.56,109.54s 110.80-49.04, 110.80-109.54l0.00-171.44 L 199.80,287.06 L 199.80,458.50 z
	" />
<glyph unicode="&#x49;" d="M 493.48,169.82c0.00,0.00, 66.60,45.56, 66.60,135.42c0.00,133.76-141.76,183.22-217.98,181.90
			c-76.24-1.34-98.96-21.40-98.96-21.40S 217.20,484.60, 189.70,500.40C 168.66,508.60, 163.78,509.78, 149.16,505.08c-11.70,0.00-4.34-19.48, 0.36-26.50
			c 4.66-7.02, 27.32-45.80, 27.32-45.80s-47.56-48.98-51.08-81.18c0.00,0.58-22.40,0.18-34.68,0.18s-11.12-13.38-11.12-13.38
			l 0.34-94.28c0.00,0.00-0.76-13.38, 10.38-13.38c 11.12,0.00, 34.76-0.26, 34.76-0.26s 33.26-48.30, 54.34-57.08
			c0.00-0.58-18.22-50.06-18.22-50.06s-8.78-15.22, 7.02-21.08c 15.80-5.84, 57.02-23.14, 74.58-28.42
			c 17.54-5.26, 20.06,6.68, 20.06,6.68l 17.38,37.54l 113.70-0.18l 17.38-38.70c0.00,0.00, 3.34-17.96, 26.74-8.02
			c 23.42,9.94, 48.98,21.74, 68.30,31.68c 19.30,9.94, 6.60,28.52, 6.60,28.52L 493.48,169.82z M 186.44,332.72
			c-10.66,0.00-19.30,8.66-19.30,19.32s 8.64,19.30, 19.30,19.30s 19.32-8.64, 19.32-19.30S 197.10,332.72, 186.44,332.72z M 458.50,392.88
			c-6.16-7.30-10.18-1.92-15.14-0.46c0.00,0.00-21.02,19.50-51.90,28.60c-31.98,9.40-65.64,4.86-65.64,4.86
			c-4.96,1.46-10.98,1.62-11.02,9.28c 0.26,9.46, 11.74,9.54, 11.60,9.86c0.00,0.00, 37.88,3.50, 69.58-5.82
			c 31.18-9.16, 55.00-29.08, 55.00-29.08S 463.72,401.34, 458.50,392.88z" />
<glyph unicode="&#x4b;" d="M 480.00,48.00l0.00,40.00 l-0.50,0.00 C 479.68,91.32, 480.00,94.62, 480.00,98.00L 480.00,268.00 l0.00,50.00 
	C 480.00,411.88, 403.88,488.00, 310.00,488.00S 140.00,411.88, 140.00,318.00L 140.00,268.00 l0.00-170.00 c0.00-3.38, 0.32-6.68, 0.50-10.00L 140.00,88.00 l0.00-40.00 c0.00,0.00-100.00,1.68-100.00,110.00c0.00,61.44, 32.14,88.54, 60.00,100.50
	L 100.00,318.00 C 100.00,433.98, 194.02,528.00, 310.00,528.00S 520.00,433.98, 520.00,318.00l0.00-59.50 c 27.86-11.98, 60.00-39.06, 60.00-100.50C 580.00,49.68, 480.00,48.00, 480.00,48.00z M 180.00,48.00L 160.00,48.00 L 160.00,268.00 l 20.00,0.00 L 180.00,48.00 z M 460.00,48.00
	l-20.00,0.00 L 440.00,268.00 l 20.00,0.00 L 460.00,48.00 z" />
<glyph unicode="&#x56;" d="M 502.64,344.70c0.00,103.30-112.54,187.04-251.32,187.04C 112.52,531.74,0.00,448.00,0.00,344.70
			c0.00-62.08, 40.64-117.08, 103.20-151.10c-0.18-0.54-49.84-90.90-49.84-90.90s 151.64,57.84, 152.06,58.08
			c 14.88-2.06, 30.22-3.10, 45.90-3.10C 390.10,157.68, 502.64,241.42, 502.64,344.70z M 687.70,286.26
			c0.00,103.28-105.94,186.28-220.62,187.02c 164.40-163.76-29.22-338.24-187.02-338.24c0.00,0.00, 17.54-35.80, 156.32-35.80
			c 15.66,0.00, 31.02,1.08, 45.90,3.12c 0.42-0.28, 152.08-58.08, 152.08-58.08s-49.68,90.34-49.84,90.88
			C 647.06,169.18, 687.70,224.20, 687.70,286.26z" horiz-adv-x="687" />
<glyph unicode="&#x55;" d="M 40.10,151.50l 260.78-123.38l0.00,276.00 L 40.10,414.52L 40.10,151.50 z M 120.12,312.18
			l 100.52-46.74l-0.58-36.84l-100.50,46.72L 120.12,312.18z M 320.00,304.12l0.00-276.00 l 259.88,123.38L 579.88,414.52 L 320.00,304.12z M 309.06,547.88L 41.80,432.74
			l 267.50-114.24L 579.58,433.00L 309.06,547.88z" />
<glyph unicode="&#x4c;" d="M 320.00,595.20c-169.664,0.00-307.20-137.536-307.20-307.20s 137.536-307.20, 307.20-307.20s 307.20,137.536, 307.20,307.20S 489.664,595.20, 320.00,595.20z M 340.992,215.168
	c-19.68,1.536-27.936,11.296-43.36,20.672c-8.512-44.544-18.848-87.232-49.60-109.504c-9.472,67.296, 13.952,117.824, 24.80,171.456
	C 254.304,328.96, 275.072,391.744, 314.144,376.288c 48.096-19.04-41.664-115.968, 18.592-128.096c 62.912-12.64, 88.576,109.152, 49.568,148.736
	c-56.352,57.184-164.032,1.312-150.784-80.576c 3.232-20.032, 23.872-26.08, 8.256-53.728c-36.064,8.00-46.848,36.448-45.44,74.368
	C 196.576,399.104, 250.112,442.56, 303.808,448.608c 67.936,7.584, 131.68-24.928, 140.512-88.832C 454.208,287.616, 413.632,209.536, 340.992,215.168z" />
<glyph unicode="&#x53;" d="M 474.24,145.664c-78.88,28.736-104.096,52.992-104.096,104.928c0.00,31.168, 24.096,20.992, 34.656,78.08c 4.384,23.68, 25.664,0.384, 29.76,54.432
		c0.00,21.536-11.616,26.912-11.616,26.912s 5.92,31.904, 8.224,56.416C 433.984,497.024, 413.504,576.00, 304.00,576.00C 194.528,576.00, 173.984,497.024, 176.864,466.432
		C 179.168,441.92, 185.088,410.016, 185.088,410.016S 173.44,404.672, 173.44,383.104c 4.064-54.048, 25.344-30.752, 29.728-54.432
		c 10.592-57.088, 34.688-46.912, 34.688-78.08c0.00-51.936-25.216-76.192-104.096-104.928c-79.168-28.80-130.56-58.208-130.56-78.272c0.00-20.032,0.00-67.36,0.00-67.36
		l 300.80,0.00 l 300.80,0.00 c0.00,0.00,0.00,47.328,0.00,67.36C 604.80,87.424, 553.376,116.832, 474.24,145.664z" />
<glyph unicode="&#x52;" d="M 100.00-12.00L 100.00,488.00 l 83.34,80.00l 253.34,0.00 L 520.00,488.00l0.00-500.00 L 100.00-12.00 z M 120.00,8.00l 380.00,0.00 L 500.00,468.00 L 120.00,468.00 L 120.00,8.00 z M 140.00,228.00l 340.00,0.00 l0.00-200.00 L 140.00,28.00 L 140.00,228.00 z M 260.00,148.00l0.00-20.00 l 20.00,0.00 
	l 60.00,0.00 l 20.00,0.00 l0.00,20.00 l0.00,40.00 l-20.00,0.00 l0.00-40.00 l-60.00,0.00 l0.00,40.00 l-20.00,0.00 L 260.00,148.00 z M 140.00,448.00l 340.00,0.00 l0.00-200.00 L 140.00,248.00 L 140.00,448.00 z M 260.00,348.00l 20.00,0.00 l 60.00,0.00 l 20.00,0.00 l0.00,20.00 l0.00,40.00 l-20.00,0.00 l0.00-40.00 l-60.00,0.00 l0.00,40.00 l-20.00,0.00 L 260.00,348.00 z" />
<glyph unicode="&#x51;" d="M 640.00,288.00C 640.00,464.731, 496.731,608.00, 320.00,608.00S0.00,464.731,0.00,288.00c0.00-137.534, 86.773-254.79, 208.554-300.043L 200.00-32.00l 240.00,0.00 l-8.554,19.957
	C 553.227,33.21, 640.00,150.466, 640.00,288.00z M 304.244,211.234C 289.989,217.351, 280.00,231.506, 280.00,248.00c0.00,22.091, 17.909,40.00, 40.00,40.00
	c 22.091,0.00, 40.00-17.909, 40.00-40.00c0.00-16.494-9.986-30.652-24.241-36.771L 320.00,248.00L 304.244,211.234z M 336.418,209.692
	C 372.725,217.266, 400.00,249.444, 400.00,288.00c0.00,44.184-35.816,80.00-80.00,80.00c-44.182,0.00-80.00-35.816-80.00-80.00c0.00-38.557, 27.289-70.701, 63.60-78.267
	l-46.64-108.826C 199.941,125.375, 160.00,182.021, 160.00,248.00c0.00,88.365, 71.635,167.50, 160.00,167.50s 160.00-79.135, 160.00-167.50
	c0.00-65.979-39.941-122.625-96.96-147.094L 336.418,209.692z M 430.28-9.317l-46.203,107.804C 463.106,125.197, 520.00,199.952, 520.00,288.00
	c0.00,110.456-89.543,200.00-200.00,200.00c-110.456,0.00-200.00-89.544-200.00-200.00c0.00-88.047, 56.894-162.802, 135.923-189.514l-46.203-107.804
	C 109.974,33.487, 40.104,132.579, 40.104,248.00C 40.104,402.582, 165.418,535.396, 320.00,535.396c 154.582,0.00, 279.896-132.814, 279.896-287.396
	C 599.896,132.579, 530.026,33.487, 430.28-9.317z" data-tags="podcast, broadcast, live, wave, radio, feed" />
<glyph unicode="&#x57;" d="M 540.00,608.00 C 595.227,608.00 640.00,563.229 640.00,508.00 C 640.00,485.487 632.556,464.714 620.00,448.00 L 580.00,408.00 L 440.00,548.00 L 480.00,588.00 C 496.714,600.556 517.486,608.00 540.00,608.00 ZM 40.00,148.00L0.00-32.00l 180.00,40.00l 370.00,370.00L 410.00,518.00L 40.00,148.00z M 447.236,380.764l-280.00-280.00l-34.472,34.472l 280.00,280.00L 447.236,380.764z" data-tags="pencil, write, edit, blog, note" />
<glyph unicode="&#x58;" d="M 200.00,368.00L 280.00,368.00L 280.00,288.00L 200.00,288.00zM 320.00,368.00L 400.00,368.00L 400.00,288.00L 320.00,288.00zM 440.00,368.00L 520.00,368.00L 520.00,288.00L 440.00,288.00zM 80.00,128.00L 160.00,128.00L 160.00,48.00L 80.00,48.00zM 200.00,128.00L 280.00,128.00L 280.00,48.00L 200.00,48.00zM 320.00,128.00L 400.00,128.00L 400.00,48.00L 320.00,48.00zM 200.00,248.00L 280.00,248.00L 280.00,168.00L 200.00,168.00zM 320.00,248.00L 400.00,248.00L 400.00,168.00L 320.00,168.00zM 440.00,248.00L 520.00,248.00L 520.00,168.00L 440.00,168.00zM 80.00,248.00L 160.00,248.00L 160.00,168.00L 80.00,168.00zM 520.00,608.00l0.00-40.00 l-80.00,0.00 L 440.00,608.00 L 160.00,608.00 l0.00-40.00 L 80.00,568.00 L 80.00,608.00 L0.00,608.00 l0.00-640.00 l 600.00,0.00 L 600.00,608.00 L 520.00,608.00 z M 560.00,8.00L 40.00,8.00 L 40.00,448.00 l 520.00,0.00 L 560.00,8.00 z" data-tags="calendar, schedule, date, time, day" />
<glyph unicode="&#x20;" horiz-adv-x="320" />
<glyph class="hidden" unicode="&#xf000;" d="M0,608L 640 -32L0 -32 z" horiz-adv-x="0" />
</font>
</defs>
</svg>
